<svg width="228" height="172" viewBox="50 30 228 172" fill="none" xmlns="http://www.w3.org/2000/svg">
<path fill-rule="evenodd" clip-rule="evenodd" d="M206.02 161.226L223.974 157.738C224.345 157.666 224.728 157.807 224.943 158.117C227.382 161.627 227.371 165.666 227.362 169.266C227.361 169.731 227.36 170.188 227.364 170.636C227.37 171.313 226.732 171.826 226.078 171.652L203.372 165.631C194.315 168.176 172.669 169.967 147.406 169.967C113.993 169.967 86.9058 166.833 86.9058 162.967C86.9058 159.101 113.993 155.967 147.406 155.967C175.624 155.967 199.33 158.203 206.02 161.226Z" fill="#E2DEDD"/>
<path d="M176.213 101.435L180.129 119.811C180.18 120.052 180.254 120.289 180.349 120.516L187.79 138.366C188.067 139.031 188.159 139.757 188.058 140.47L186.211 153.435" stroke="#B35540" stroke-width="10" stroke-linecap="round"/>
<ellipse cx="172.561" cy="111.435" rx="9.47271" ry="17.6917" transform="rotate(-32.8864 172.561 111.435)" fill="#B35540"/>
<path d="M184.713 155.435H187.213" stroke="black" stroke-width="9" stroke-linecap="round"/>
<path d="M183.906 103.968L187.822 122.343C187.874 122.585 187.947 122.821 188.042 123.049L195.483 140.899C195.76 141.563 195.853 142.289 195.751 143.002L193.905 155.968" stroke="#E0694E" stroke-width="10" stroke-linecap="round"/>
<path d="M221.317 95.1763C222.338 95.418 222.998 96.4066 222.849 97.4452C221.712 105.375 221.018 115.346 217.041 121.673C216.401 122.691 214.99 122.717 214.177 121.831L185.396 90.4289C184.065 88.9766 185.414 86.6775 187.331 87.1313L221.317 95.1763Z" fill="#0B0B0B"/>
<path d="M107.951 95.9762C109.887 91.0548 114.401 87.62 119.661 87.0662L170.502 81.7127C179.709 80.7432 187.998 87.3186 189.15 96.5042L191.234 113.125C191.848 118.021 187.928 122.3 182.997 122.115L123.595 119.892C111.533 119.44 103.532 107.209 107.951 95.9762Z" fill="#E0694E"/>
<path d="M109.496 58.0448C111.633 57.6111 113.741 58.9682 114.046 61.1273C114.972 67.6827 114.587 74.3255 112.915 80.6545C112.339 82.8352 109.958 83.9087 107.857 83.0863L78.9262 71.7587C75.2128 70.3048 75.6808 64.9071 79.589 64.114L109.496 58.0448Z" fill="#E0694E"/>
<path fill-rule="evenodd" clip-rule="evenodd" d="M102.846 56.7285C101.779 60.9976 104.36 65.3236 108.615 66.417C107.29 67.4734 106.289 68.9575 105.846 70.7285C104.775 75.0148 107.381 79.3584 111.667 80.4301C114.433 81.1217 117.223 80.2817 119.142 78.4468C118.726 82.352 121.24 86.0664 125.159 87.0462C129.445 88.1179 133.788 85.5119 134.86 81.2256C135.932 76.9393 133.326 72.5957 129.04 71.524C128.769 71.4563 128.498 71.4032 128.227 71.3644C129.239 70.3676 129.999 69.0886 130.368 67.6095C131.44 63.3232 128.834 58.9796 124.548 57.9079C122.452 57.3839 120.343 57.7391 118.609 58.7399C118.644 55.1253 116.209 51.8233 112.548 50.9079C108.262 49.8362 103.918 52.4422 102.846 56.7285Z" fill="#0B0B0B"/>
<path d="M134.015 90.0115C134.281 90.3975 134.236 90.9113 133.908 91.247C127.11 98.2232 118.641 103.253 109.389 105.813C108.845 105.963 108.291 105.623 108.168 105.073L97.1083 55.8465C96.9117 54.9715 97.8642 54.3052 98.607 54.8077C102.746 57.607 112.233 64.235 118 69.9352C124.405 76.266 132.097 87.2291 134.015 90.0115Z" fill="#E0694E"/>
<path d="M118.906 107.967V126.767C118.906 126.899 118.88 127.03 118.829 127.152L107.983 153.168C107.932 153.29 107.906 153.421 107.906 153.553V158.967" stroke="#E0694E" stroke-width="10" stroke-linecap="round"/>
<path d="M114.406 112.467L94.6673 100.095C94.298 99.8635 93.8211 99.898 93.4889 100.18L83.2945 108.839C82.9284 109.15 82.8351 109.677 83.0722 110.095L86.4058 115.967" stroke="#E0694E" stroke-width="10" stroke-linecap="round"/>
<ellipse cx="180.254" cy="113.968" rx="9.47271" ry="17.6917" transform="rotate(-32.8864 180.254 113.968)" fill="#E0694E"/>
<ellipse cx="119.695" cy="116.897" rx="6.53681" ry="15.6375" transform="rotate(2.71369 119.695 116.897)" fill="#E0694E"/>
<ellipse cx="113.418" cy="104.746" rx="8.98425" ry="11.3664" transform="rotate(2.71369 113.418 104.746)" fill="#E0694E"/>
<path d="M107.906 158.967H108.906" stroke="black" stroke-width="9" stroke-linecap="round"/>
<path d="M85.9058 116.967L86.9058 115.967" stroke="black" stroke-width="9" stroke-linecap="round"/>
<path d="M192.406 157.967H194.906" stroke="black" stroke-width="9" stroke-linecap="round"/>
<path d="M173 114.935C169.5 114.935 162.5 119.935 126.5 119.935L174.5 121.935C173 119.935 172 115.935 173 114.935Z" fill="#0B0B0B" fill-opacity="0.21"/>
<ellipse rx="0.93369" ry="0.958002" transform="matrix(0.999987 -0.00517052 -0.00786051 0.999969 96.6307 65.7156)" fill="#0B0B0B"/>
<path d="M78.5046 67.3423C78.3214 66.8962 78.366 65.9636 80.0105 65.8018M77.9056 70.4675C79.3955 70.9707 82.7654 71.6501 85.7737 69.029M101.406 60.9675C99.4056 59.9675 97.4054 57.1343 97.4056 56.4676C97.4057 55.8008 97.606 54.6674 98.406 55.4675C99.206 56.2675 101.406 58.4675 102.406 59.4674" stroke="black" stroke-linecap="round"/>
<path d="M85.9922 87.761C83.654 84.3245 79.3245 76.0703 80.7124 70.5455" stroke="black"/>
<path d="M80.9058 62.9674C81.4223 60.6018 83.0809 55.2866 86.1036 50.8262" stroke="black" stroke-linecap="round"/>
<ellipse rx="2.0972" ry="3.75408" transform="matrix(0.661918 -0.749577 0.733319 0.679885 79.0088 55.9524)" fill="#FFD8CA"/>
<ellipse rx="2.08547" ry="3.77561" transform="matrix(-0.444711 -0.895674 0.882639 -0.470052 87.347 54.6414)" fill="#FFD8CA"/>
<ellipse rx="2.0531" ry="3.83381" transform="matrix(0.999351 0.0360252 -0.0469433 0.998898 84.9758 46.8901)" fill="#FFD8CA"/>
<ellipse rx="1.84723" ry="3.43553" transform="matrix(0.837346 0.546673 -0.531662 0.846957 89.9907 42.5679)" fill="#FFD8CA"/>
<path d="M81.6988 58.0797C80.167 58.0127 78.2301 56.1131 77.5664 54.7324" stroke="black" stroke-linecap="round" stroke-linejoin="round"/>
<path d="M83.4684 55.825C85.3038 55.7825 86.4277 54.8841 88.0756 54.4538" stroke="black" stroke-linecap="round" stroke-linejoin="round"/>
<path d="M84.9061 50.4674C84.906 48.9674 85.9058 46.9674 85.4055 44.4674" stroke="black" stroke-linecap="round" stroke-linejoin="round"/>
<ellipse rx="2.08083" ry="3.78407" transform="matrix(0.512809 0.858502 -0.843371 0.537331 90.3806 48.2905)" fill="#FFD8CA"/>
<path d="M87.4053 49.9678C89.5066 49.9678 91.4058 48.9674 92.9058 46.9674" stroke="black" stroke-linecap="round" stroke-linejoin="round"/>
<path d="M88.4061 45.4674C88.9063 43.4674 88.9063 42.9674 90.8089 40.9653" stroke="black" stroke-linecap="round" stroke-linejoin="round"/>
</svg>
