<svg width="65" height="99" viewBox="0 0 65 99" fill="none" xmlns="http://www.w3.org/2000/svg">
<g opacity="0.4" filter="url(#filter0_f)">
<path fill-rule="evenodd" clip-rule="evenodd" d="M19.2808 88.9412C19.0693 89.2904 18.9585 89.6511 18.9585 90.0201C18.9585 93.1323 26.8401 95.6553 36.5627 95.6553C46.2852 95.6553 54.1668 93.1323 54.1668 90.0201C54.1668 86.9079 46.2852 84.3849 36.5627 84.3849C31.9515 84.3849 27.7543 84.9524 24.6158 85.8812C19.3937 84.6146 12.8647 82.8069 12.8647 82.8069C12.8647 82.8069 14.6754 85.2729 19.2808 88.9412Z" fill="black" fill-opacity="0.27"/>
</g>
<path d="M32.1607 68.9461C26.8574 77.6225 32.1609 87.0897 32.1609 91.8233M40.4165 64.5454C51.2323 76.7209 41.9788 85.7099 41.9788 87.7659" stroke="#87B9E7" stroke-width="1.18909" stroke-linecap="round"/>
<ellipse cx="42.358" cy="24.1353" rx="10.2218" ry="12.0412" fill="#87B9E7"/>
<path d="M42.4523 38.3421C42.4033 40.1817 41.8165 40.4612 40.0228 40.3404C38.229 40.2195 37.9779 38.8844 37.7534 38.3421C37.6067 29.7854 38.8591 28.3235 40.1928 28.3235C41.5265 28.3235 42.5558 34.4516 42.4523 38.3421Z" fill="#87B9E7"/>
<path d="M44.7168 12.6683C50.5725 14.3365 6.45068 0.314697 6.45068 0.314697C6.45068 0.314697 24.2733 22.5647 34.233 31.7264C31 21.5 38.8611 11 44.7168 12.6683Z" fill="#E0694E"/>
<path d="M50.6914 25.2158C50.6914 25.5395 51.3231 25.802 51.7697 25.802C52.2164 25.802 52.5785 25.6285 52.5785 25.2158C52.5785 24.803 52.2164 24.6295 51.7697 24.6295C51.3231 24.6295 50.6914 24.892 50.6914 25.2158Z" fill="#0B0B0B" fill-opacity="0.2"/>
<path d="M51.4262 24.4874C51.4262 29.5973 48.1395 32.1976 45.4504 32.1976C42.7613 32.1976 39.4746 29.5973 39.4746 24.4874C39.4746 19.3776 42.1501 15.2352 45.4504 15.2352C48.7508 15.2352 51.4262 19.3776 51.4262 24.4874Z" fill="#0B0B0B"/>
<path fill-rule="evenodd" clip-rule="evenodd" d="M40.4002 21.5374C41.5094 21.9082 43.2149 21.718 44.9118 20.9351C47.2066 19.8764 48.6871 18.1022 48.4416 16.8015C50.2779 18.3299 51.5303 21.3816 51.5303 24.8968C51.5303 29.9435 48.3589 32.5117 45.7642 32.5117C43.1694 32.5117 39.998 29.9435 39.998 24.8968C39.998 23.7106 40.1407 22.5772 40.4002 21.5374Z" fill="#FFD8CA"/>
<path d="M50.692 24.7634C50.692 25.1103 51.3237 25.3916 51.7703 25.3916C52.217 25.3916 52.5791 25.2057 52.5791 24.7634C52.5791 24.3211 52.217 24.1351 51.7703 24.1351C51.3237 24.1351 50.692 24.4164 50.692 24.7634Z" fill="#FFD8CA"/>
<path d="M46.2032 22.1887C46.3949 21.3547 47.5909 21.1347 48.508 21.3414C49.4252 21.5481 50.0315 22.313 49.8622 23.0498C49.6929 23.7866 48.8122 24.2164 47.895 24.0097C46.9778 23.803 46.0116 23.0227 46.2032 22.1887Z" fill="#0B0B0B"/>
<path fill-rule="evenodd" clip-rule="evenodd" d="M48.5085 21.3414C47.5913 21.1347 46.3953 21.3547 46.2037 22.1887C46.0121 23.0227 46.9783 23.803 47.8955 24.0097C47.9921 24.0315 48.0884 24.0462 48.1834 24.0542C47.8536 23.766 47.6452 23.3422 47.6452 22.8697C47.6452 22.1879 48.0791 21.6075 48.6857 21.3894C48.6281 21.3711 48.569 21.3551 48.5085 21.3414Z" fill="#F2F2F2"/>
<path d="M48.5239 16.7708C47.8468 20.6076 43.7843 22.6388 39.7219 21.9617" stroke="black" stroke-width="0.451388"/>
<ellipse rx="1.31048" ry="1.83467" transform="matrix(-1 0 0 1 39.213 23.8911)" fill="#0B0B0B" fill-opacity="0.2"/>
<ellipse rx="1.31048" ry="1.83467" transform="matrix(-1 0 0 1 39.213 23.3669)" fill="#FFD8CA"/>
<path d="M44.7825 91.9908L42.4785 87.6387" stroke="#0B0B0B" stroke-width="2.62096" stroke-linecap="round" stroke-linejoin="round"/>
<path d="M32.6899 92.3981L32.135 88.5415" stroke="#0B0B0B" stroke-width="2.62096" stroke-linecap="round" stroke-linejoin="round"/>
<path d="M50.5328 21.2499C52.1801 21.2499 49.2201 21.2499 50.8674 21.2499C51.3625 21.2499 54.1909 22.1281 53.4555 21.2498C53.2363 20.9881 53.6817 19.5403 53.6817 20.0116C53.6817 21.9496 54.1665 23.8789 54.1665 25.8526C54.1665 29.2927 54.0659 32.8013 53.4555 36.2033C52.1565 37.6098 41 39.5001 41 39.5001" stroke="#87B9E7" stroke-width="1.56383" stroke-linecap="round" stroke-linejoin="round"/>
<path d="M47.5962 21.8503L53.3176 21.8503L53.6831 20.3355" stroke="black" stroke-opacity="0.28" stroke-width="1.56383" stroke-linecap="round" stroke-linejoin="round"/>
<path d="M47.9204 21.0837C49.3569 20.9532 49.6914 20.8872 51.1534 20.5842L53.3185 19.7775" stroke="#FFD8CA" stroke-width="1.56383" stroke-linecap="round" stroke-linejoin="round"/>
<path d="M49.4267 26.7013C49.4267 27.3246 49.6288 27.6041 49.8781 27.6041C50.1274 27.6041 50.5552 26.8732 50.5552 26.2499C50.5552 25.6267 50.3531 25.3472 50.1038 25.3472C49.8545 25.3472 49.4267 26.0781 49.4267 26.7013Z" fill="#0B0B0B"/>
<g filter="url(#filter1_d)">
<path d="M42.692 38.4789C43.3152 36.3275 40.6912 29.6976 35.3235 38.0551C34.2342 39.7513 26.0239 47.0896 18.2883 55.9299C17.1112 57.2751 17.0675 59.2795 18.2311 60.6354C28.5045 72.6067 37.2329 72.0216 47.0722 67.83C48.5129 67.2163 49.2039 65.5876 48.7341 64.0944C45.6851 54.4035 42.1225 40.4453 42.692 38.4789Z" fill="#87B9E7"/>
</g>
<path d="M36.7881 40.2047C34.757 41.7826 29.5 46 29.5 48C29.5 50 32.4204 54 34 55L32 56.5" stroke="#0B0B0B" stroke-opacity="0.2" stroke-width="1.47298" stroke-linecap="round" stroke-linejoin="round"/>
<path d="M37.2398 39.7539C35.153 41.6953 28.5005 41.5 29.0004 45C29.6526 49.5664 32.3245 52.9705 34 54.5" stroke="#87B9E7" stroke-width="1.47298" stroke-linecap="round" stroke-linejoin="round"/>
<path d="M33.6353 55.1021L32.0002 55.9957" stroke="#FFD8CA" stroke-width="1.5883" stroke-linecap="round"/>
<defs>
<filter id="filter0_f" x="12.6269" y="82.5691" width="41.7777" height="13.3241" filterUnits="userSpaceOnUse" color-interpolation-filters="sRGB">
<feFlood flood-opacity="0" result="BackgroundImageFix"/>
<feBlend mode="normal" in="SourceGraphic" in2="BackgroundImageFix" result="shape"/>
<feGaussianBlur stdDeviation="0.118909" result="effect1_foregroundBlur"/>
</filter>
<filter id="filter1_d" x="14.7654" y="32.5202" width="36.7307" height="41.8425" filterUnits="userSpaceOnUse" color-interpolation-filters="sRGB">
<feFlood flood-opacity="0" result="BackgroundImageFix"/>
<feColorMatrix in="SourceAlpha" type="matrix" values="0 0 0 0 0 0 0 0 0 0 0 0 0 0 0 0 0 0 127 0"/>
<feOffset dy="1.18909"/>
<feGaussianBlur stdDeviation="1.308"/>
<feColorMatrix type="matrix" values="0 0 0 0 0 0 0 0 0 0 0 0 0 0 0 0 0 0 0.15 0"/>
<feBlend mode="normal" in2="BackgroundImageFix" result="effect1_dropShadow"/>
<feBlend mode="normal" in="SourceGraphic" in2="effect1_dropShadow" result="shape"/>
</filter>
</defs>
</svg>
